<svg width="107" height="15" viewBox="0 0 107 15" xmlns="http://www.w3.org/2000/svg"><title>Fill 1 Copy 5</title><path d="M2.784 5.428C5.117 6.31 6.38 8.665 6.38 8.665 9.49 1.213 21.255.02 21.255.02c-1.556.426-2.623 4.477-2.623 4.477-.29 1.667-1.798 4.61-1.798 4.61C13.09 14.94 7.936 14.3 7.936 14.3c-9.04 0-7.888-11.17-7.888-11.17.034.89 2.736 2.296 2.736 2.296zM1.58 7.64s4.598 3.86 4.93 5.615c0 0 4.77-8.106 11.18-10.223 0 0-7.77 1.86-11.17 8.56 0 0-2.122-2.916-4.94-3.95zM34.506 9.29c-.13 1.58-.718 2.82-1.763 3.715-1.07.87-2.482 1.304-4.232 1.304-2.038 0-3.592-.618-4.663-1.857-1.072-1.187-1.607-2.938-1.607-5.257 0-2.37.55-4.15 1.646-5.335C25.01.618 26.63 0 28.746 0c1.723 0 3.095.435 4.114 1.305.966.843 1.515 2.03 1.645 3.557H32.82c-.627 0-1.07-.277-1.332-.83-.183-.343-.405-.646-.666-.91-.523-.395-1.215-.592-2.077-.592-1.202 0-2.13.395-2.782 1.186-.627.79-.94 1.95-.94 3.477 0 1.476.313 2.608.94 3.4.6.816 1.502 1.224 2.704 1.224.835 0 1.528-.21 2.077-.632.495-.395.848-1.028 1.058-1.897h2.703zm2.283 3.754c-.55-.474-.94-1.113-1.176-1.917-.235-.803-.353-1.64-.353-2.51 0-.71.097-1.422.293-2.133.196-.712.503-1.304.92-1.78.68-.79 1.555-1.257 2.627-1.402 1.07-.144 2.037-.06 2.9.257.992.395 1.724 1.08 2.193 2.055.445.87.667 1.885.667 3.043 0 .844-.092 1.57-.274 2.175-.184.606-.42 1.12-.706 1.54-.627.87-1.424 1.41-2.39 1.62-.862.238-1.732.257-2.606.06-.876-.197-1.574-.533-2.096-1.008zm1.88-6.955c-.548.606-.796 1.508-.744 2.707.052 1.2.274 2.036.666 2.51.157.21.43.388.823.533.392.145.79.158 1.195.04.405-.12.765-.415 1.078-.89.314-.474.483-1.238.51-2.292 0-.948-.152-1.66-.45-2.134-.302-.473-.648-.776-1.04-.908-.39-.13-.783-.138-1.176-.02-.39.12-.68.27-.86.455zm16.116 7.903h-1.372c-.39 0-.712-.123-.96-.375-.248-.25-.372-.573-.372-.968V7.273c0-.633-.19-1.094-.568-1.384-.38-.29-.804-.436-1.274-.436s-.888.146-1.254.435c-.366.29-.55.75-.55 1.383v6.717h-2.742V7.825c0-1.79.464-2.99 1.39-3.596.928-.607 1.954-.936 3.078-.99 1.15 0 2.207.304 3.174.91.966.606 1.45 1.83 1.45 3.675v6.165zm5.456 0c-.862.054-1.796.04-2.802-.038-1.006-.08-1.51-.725-1.51-1.938V.394h1.412c.34 0 .64.133.9.396.262.264.393.58.393.95v1.777h1.607v.554c0 .396-.13.72-.392.97s-.575.374-.94.374h-.275v5.85c0 .448.26.672.784.672h.823v2.054zm7.298-.433c-.55.29-1.13.466-1.744.533-.614.065-1.156.098-1.626.098-.94 0-1.763-.257-2.47-.77-.704-.514-1.057-1.364-1.057-2.55 0-1.106.32-1.897.96-2.37.64-.475 1.457-.79 2.45-.95.13 0 .288-.02.47-.058.183-.04.392-.073.628-.1 1.15-.157 1.723-.5 1.723-1.027 0-.395-.2-.652-.606-.77-.405-.12-.777-.18-1.116-.18-.367 0-.693.055-.98.16-.288.105-.497.303-.627.592h-2.625c.104-.816.47-1.487 1.098-2.015.705-.606 1.71-.91 3.017-.91 1.462 0 2.56.252 3.292.752.757.527 1.136 1.265 1.136 2.213V9.8c0 1.056-.19 1.88-.568 2.47-.38.595-.83 1.024-1.352 1.287zm-.627-4.862c-.365.184-.875.356-1.528.514l-.9.196c-.47.132-.81.304-1.02.514-.183.29-.274.58-.274.87 0 .395.117.71.353.948.236.21.575.316 1.02.316.73 0 1.305-.21 1.724-.632.418-.42.627-1 .627-1.738v-.99zm9.14-8.3h2.195l4.9 13.595h-2.94l-.902-2.805h-5.25l-.863 2.805h-2.94l4.47-12.685c.233-.606.677-.91 1.33-.91zm.627 2.727l-1.88 5.77h3.762l-1.883-5.77zm7.495 10.868v-2.094l5.604-6.244h-3.958c-.366 0-.68-.125-.94-.376-.262-.25-.392-.56-.392-.93V3.48h8.542V5.73L87.503 11.7h5.72v2.292h-9.05zm18.976-10.512v6.166c0 1.87-.484 3.096-1.45 3.675-.967.578-2.025.868-3.174.868-1.124-.052-2.15-.368-3.077-.948s-1.39-1.778-1.39-3.596V3.478h2.742v6.72c0 .632.182 1.092.548 1.382.366.29.784.434 1.254.434s.895-.144 1.274-.434c.378-.29.568-.75.568-1.383V4.822c0-.368.124-.685.372-.95.248-.262.568-.394.96-.394h1.372zm.95-3.083h1.41c.365 0 .68.126.94.376.26.25.392.56.392.93v12.29h-2.743V.395z" fill="#C9D3DD" fill-rule="evenodd"/></svg>